<svg xmlns="http://www.w3.org/2000/svg" viewBox="0 0 40.94 38.38"><defs><style>.cls-1{fill:green;}</style></defs><title>Asset 1</title><g id="Layer_2" data-name="Layer 2"><g id="Layer_1-2" data-name="Layer 1"><path class="cls-1" d="M40.94,14.25a1.29,1.29,0,0,0-1.47-1.45c-1.19,0-2.39,0-3.58,0a.94.94,0,0,1-1-.54Q31.57,6.6,28.16,1a3.18,3.18,0,0,0-.45-.62A1.21,1.21,0,0,0,26.19.21a1.22,1.22,0,0,0-.5,1.51,4.28,4.28,0,0,0,.33.62l5.86,9.76c.12.2.22.42.35.67H8.71c.15-.28.26-.51.39-.72l5.43-9c.24-.4.5-.8.7-1.22A1.21,1.21,0,0,0,14.75.21a1.22,1.22,0,0,0-1.62.23,4.31,4.31,0,0,0-.42.64Q9.34,6.69,6,12.32a.85.85,0,0,1-.86.49c-1.19,0-2.39,0-3.58,0S0,13.26,0,14.31c0,1.43,0,2.86,0,4.29s.34,1.89,1.83,1.85c.61,0,.74.2.74.76,0,3.95,0,7.89,0,11.84a5.1,5.1,0,0,0,5.3,5.33H33.08A5.1,5.1,0,0,0,38.38,33q0-5.76,0-11.52c0-1.27-.07-1.05,1-1.07S40.93,20,40.94,19Q40.95,16.62,40.94,14.25ZM9,31.86a1.29,1.29,0,1,1-2.57,0q0-3.74,0-7.47A1.28,1.28,0,0,1,7.66,23,1.3,1.3,0,0,1,9,24.45C9,25.7,9,27,9,28.22S9,30.64,9,31.86Zm6.4,0a1.3,1.3,0,0,1-1.27,1.45c-.79,0-1.3-.56-1.3-1.48,0-1.21,0-2.43,0-3.64s0-2.43,0-3.64c0-.92.51-1.49,1.3-1.48a1.3,1.3,0,0,1,1.27,1.45Q15.37,28.15,15.36,31.82Zm6.4,0a1.29,1.29,0,1,1-2.57,0q0-3.7,0-7.41a1.29,1.29,0,1,1,2.57,0c0,1.26,0,2.51,0,3.77S21.77,30.61,21.76,31.83Zm6.4,0a1.3,1.3,0,1,1-2.57,0q0-3.67,0-7.35a1.29,1.29,0,1,1,2.57,0c0,1.24,0,2.47,0,3.71S28.16,30.59,28.16,31.8Zm6.4,0a1.3,1.3,0,1,1-2.57,0q0-3.67,0-7.35a1.29,1.29,0,1,1,2.57,0c0,1.24,0,2.47,0,3.71S34.56,30.59,34.56,31.8Z"/></g></g></svg>